<svg width="18" height="18" viewBox="0 0 18 18" fill="none" xmlns="http://www.w3.org/2000/svg">
<path d="M14.9323 2.99685L10.8062 0.680825C9.4562 -0.0788298 7.80195 -0.0788298 6.45193 0.680825L2.3068 2.99685C0.975792 3.7565 0.13916 5.16464 0.13916 6.66542V11.316C0.13916 12.8353 0.975792 14.2249 2.3068 14.9846L6.43292 17.3191C7.78294 18.0788 9.43719 18.0788 10.7872 17.3191L14.9133 14.9846C16.2633 14.2249 17.081 12.8353 17.081 11.316V6.66542C17.119 5.16464 16.2824 3.7565 14.9323 2.99685ZM8.61957 13.1318C6.2808 13.1318 4.37936 11.2789 4.37936 8.99997C4.37936 6.72101 6.2808 4.86819 8.61957 4.86819C10.9583 4.86819 12.8788 6.72101 12.8788 8.99997C12.8788 11.2789 10.9774 13.1318 8.61957 13.1318Z" fill="#7C3AED"/>
</svg>
